<svg width="1007" height="675" viewBox="0 0 1007 675" fill="none" xmlns="http://www.w3.org/2000/svg">
<path d="M835.819 443.906C815.884 443.986 795.89 430.903 793.259 404.716C792.841 398.91 793.62 393.08 795.549 387.588C797.478 382.096 800.515 377.058 804.472 372.789C807.152 368.858 809.993 365.067 812.604 361.396C822.766 347.033 813.084 339.471 803.501 337.33L669.66 337.33L669.66 203.488C667.519 193.906 659.957 184.224 645.594 194.386C641.923 196.997 638.132 199.838 634.201 202.518C629.932 206.475 624.894 209.512 619.402 211.441C613.91 213.37 608.08 214.149 602.274 213.731C576.077 211.1 563.004 191.106 563.084 171.171C563.004 151.236 576.087 131.241 602.274 128.611C608.08 128.192 613.91 128.972 619.402 130.901C624.894 132.829 629.932 135.867 634.201 139.823C638.132 142.504 641.923 145.345 645.594 147.955C659.957 158.118 667.519 148.435 669.66 138.853L669.66 5.00118L1001.99 5.00119L1001.99 337.34L868.147 337.34C858.565 339.481 848.882 347.043 859.045 361.406C861.655 365.077 864.496 368.868 867.177 372.799C871.131 377.07 874.167 382.107 876.096 387.599C878.025 393.091 878.805 398.921 878.389 404.726C875.759 430.923 855.764 443.996 835.829 443.916L835.819 443.906Z" fill="#D1D5DB" stroke="white" stroke-width="10"/>
<path d="M503.51 230.775C523.445 230.695 543.439 243.778 546.07 269.964C546.486 275.77 545.705 281.6 543.777 287.092C541.848 292.583 538.812 297.621 534.857 301.892C532.177 305.823 529.336 309.614 526.726 313.285C516.563 327.648 526.245 335.21 535.828 337.35L669.7 337.35L669.7 471.192C671.84 480.775 679.402 490.457 693.755 480.294C697.436 477.684 701.227 474.843 705.148 472.162C709.42 468.206 714.459 465.17 719.953 463.241C725.447 461.312 731.278 460.533 737.086 460.95C763.282 463.58 776.355 483.575 776.275 503.51C776.355 523.445 763.272 543.439 737.086 546.07C731.278 546.487 725.447 545.708 719.953 543.779C714.459 541.85 709.42 538.813 705.148 534.857C701.227 532.177 697.436 529.336 693.755 526.726C679.402 516.563 671.84 526.245 669.7 535.828L669.7 669.67L337.37 669.67L337.37 535.838C339.511 526.265 347.073 516.573 361.436 526.745C365.107 529.356 368.898 532.187 372.829 534.867C377.098 538.824 382.136 541.861 387.628 543.79C393.12 545.719 398.95 546.498 404.756 546.08C430.953 543.449 444.036 523.455 443.946 503.52C444.036 483.575 430.943 463.58 404.756 460.95C398.95 460.531 393.12 461.311 387.628 463.24C382.136 465.169 377.098 468.206 372.829 472.162C368.898 474.843 365.107 477.674 361.436 480.284C347.073 490.457 339.511 480.765 337.37 471.192L337.37 337.34L471.212 337.34C480.785 335.2 490.477 327.638 480.304 313.275C477.694 309.604 474.863 305.813 472.182 301.882C468.226 297.612 465.189 292.575 463.26 287.083C461.331 281.59 460.551 275.76 460.97 269.954C463.6 243.758 483.595 230.685 503.53 230.765L503.51 230.775Z" fill="#D1D5DB" stroke="white" stroke-width="10"/>
<path d="M337.37 5.0212L337.37 138.863C335.22 148.445 327.668 158.128 313.305 147.965C309.634 145.355 305.843 142.514 301.912 139.833C297.64 135.878 292.6 132.842 287.107 130.913C281.613 128.984 275.782 128.204 269.974 128.621C243.788 131.251 230.705 151.246 230.795 171.181C230.705 191.116 243.798 211.11 269.974 213.741C275.782 214.16 281.614 213.381 287.108 211.452C292.602 209.523 297.641 206.486 301.912 202.528C305.843 199.848 309.634 197.017 313.305 194.406C327.668 184.234 335.22 193.926 337.37 203.498L337.37 337.34L471.212 337.34C480.785 335.2 490.467 327.638 480.304 313.275C477.694 309.604 474.863 305.813 472.173 301.882C468.218 297.612 465.182 292.574 463.255 287.082C461.328 281.589 460.55 275.76 460.97 269.954C463.6 243.758 483.595 230.675 503.53 230.765C523.475 230.675 543.47 243.768 546.1 269.954C546.518 275.76 545.739 281.591 543.81 287.083C541.881 292.575 538.844 297.612 534.887 301.882C532.207 305.813 529.376 309.604 526.766 313.275C516.593 327.638 526.285 335.2 535.858 337.34L669.7 337.34L669.7 203.509C667.549 193.936 659.997 184.254 645.634 194.416C641.963 197.027 638.172 199.858 634.241 202.548C629.97 206.505 624.93 209.541 619.436 211.468C613.942 213.395 608.111 214.172 602.304 213.751C576.117 211.12 563.034 191.126 563.124 171.191C563.034 151.246 576.127 131.251 602.304 128.621C608.111 128.202 613.943 128.981 619.437 130.909C624.931 132.838 629.97 135.876 634.241 139.833C638.172 142.514 641.963 145.345 645.634 147.955C659.997 158.128 667.549 148.435 669.7 138.863L669.7 5.02122L337.37 5.0212Z" fill="#9CA3AF" stroke="white" stroke-width="10"/>
<path d="M171.161 443.906C151.226 443.986 131.231 430.903 128.601 404.716C128.181 398.911 128.959 393.081 130.886 387.589C132.813 382.097 135.848 377.059 139.803 372.789C142.494 368.858 145.325 365.067 147.935 361.396C158.098 347.033 148.415 339.471 138.843 337.33L5.00118 337.33L5.00119 5.00118L337.33 5.00119L337.33 138.843C335.18 148.415 327.628 158.108 313.265 147.935C309.584 145.325 305.793 142.494 301.872 139.813C297.6 135.857 292.561 132.82 287.067 130.891C281.573 128.962 275.742 128.183 269.934 128.601C243.748 131.231 230.665 151.226 230.755 171.161C230.665 191.106 243.758 211.1 269.934 213.731C275.742 214.149 281.573 213.369 287.067 211.44C292.561 209.512 297.6 206.475 301.872 202.518C305.793 199.838 309.584 197.007 313.265 194.396C327.628 184.224 335.18 193.916 337.33 203.488L337.33 337.34L203.438 337.34C193.866 339.481 184.184 347.043 194.346 361.406C196.957 365.077 199.788 368.868 202.478 372.799C206.433 377.069 209.468 382.107 211.396 387.599C213.323 393.091 214.101 398.921 213.681 404.726C211.05 430.923 191.065 443.996 171.121 443.916L171.161 443.906Z" fill="#D1D5DB" stroke="white" stroke-width="10"/>
<path d="M443.896 503.5C443.986 523.435 430.893 543.429 404.716 546.06C398.909 546.475 393.078 545.694 387.585 543.765C382.092 541.837 377.052 538.802 372.779 534.847C368.858 532.167 365.067 529.326 361.386 526.716C347.023 516.553 339.471 526.235 337.38 535.818L337.38 669.66L5.05127 669.66L5.05128 337.34L138.843 337.34C148.415 339.481 158.098 347.043 147.935 361.406C145.325 365.077 142.494 368.868 139.803 372.799C135.848 377.069 132.813 382.107 130.886 387.599C128.959 393.091 128.181 398.921 128.601 404.726C131.231 430.923 151.226 444.006 171.161 443.916C191.096 444.006 211.1 430.913 213.731 404.726C214.147 398.921 213.366 393.091 211.438 387.599C209.509 382.107 206.473 377.07 202.518 372.799C199.838 368.868 196.997 365.077 194.386 361.406C184.224 347.043 193.906 339.481 203.489 337.34L337.33 337.34L337.33 471.172C339.471 480.745 347.023 490.437 361.336 480.264C365.017 477.654 368.808 474.823 372.729 472.143C377.001 468.186 382.04 465.15 387.534 463.221C393.028 461.292 398.859 460.513 404.666 460.93C430.853 463.56 443.936 483.555 443.846 503.49L443.896 503.5Z" fill="#188888" stroke="white" stroke-width="10"/>
<path d="M1002 669.68L669.68 669.68L669.68 535.838C671.82 526.265 679.372 516.583 693.685 526.746C697.366 529.356 701.157 532.187 705.078 534.877C709.351 538.832 714.39 541.867 719.884 543.794C725.378 545.721 731.209 546.499 737.016 546.08C763.202 543.45 776.285 523.455 776.195 503.52C776.285 483.575 763.192 463.58 737.016 460.95C731.208 460.533 725.377 461.312 719.883 463.241C714.389 465.17 709.35 468.206 705.078 472.163C701.157 474.843 697.366 477.684 693.685 480.294C679.322 490.457 671.77 480.775 669.68 471.192L669.68 337.34L803.522 337.34C813.084 339.511 822.716 347.053 812.524 361.346C809.913 365.017 807.072 368.808 804.392 372.739C800.436 377.011 797.4 382.05 795.471 387.544C793.542 393.038 792.762 398.869 793.179 404.676C795.81 430.863 815.804 443.946 835.739 443.856C855.674 443.946 875.669 430.853 878.299 404.676C878.718 398.869 877.939 393.037 876.011 387.543C874.082 382.049 871.044 377.01 867.087 372.739C864.406 368.808 861.575 365.017 858.965 361.346C848.802 347.003 858.445 339.451 868.017 337.34C868.017 337.34 868.017 337.34 868.067 337.34L1002 337.34L1002 669.68Z" fill="#9CA3AF" stroke="white" stroke-width="10"/>
</svg>
